# WaveFront *.obj file (generated by Autodesk ATF)

mtllib 68984f6e-4b9f-42d9-a13e-2ea7504a1014.mtl

g Body1

v 0.000000 0.000000 0.000000
v 0.000000 18.000000 0.000000
v 0.000000 18.000000 0.220000
v 0.000000 0.000000 0.220000
v -12.000000 0.000000 0.000000
v -12.000000 0.000000 0.220000
v -12.000000 18.000000 0.000000
v -12.000000 18.000000 0.220000
vt 0.000000 0.000000 0.000000
vt 45.720000 0.000000 0.000000
vt 0.000000 0.558800 0.000000
vt 45.720000 0.558800 0.000000
vt 0.000000 0.000000 0.000000
vt 30.480000 0.000000 0.000000
vt 0.000000 0.558800 0.000000
vt 30.480000 0.558800 0.000000
vt -0.000000 0.000000 0.000000
vt 45.720000 0.000000 0.000000
vt -0.000000 0.558800 0.000000
vt 45.720000 0.558800 0.000000
vt -0.000000 0.000000 0.000000
vt 30.480000 0.000000 0.000000
vt -0.000000 0.558800 0.000000
vt 30.480000 0.558800 0.000000
vt 15.240000 22.860000 0.000000
vt -15.240000 22.860000 0.000000
vt 15.240000 -22.860000 0.000000
vt -15.240000 -22.860000 0.000000
vt 15.240000 22.860000 0.000000
vt -15.240000 22.860000 0.000000
vt 15.240000 -22.860000 0.000000
vt -15.240000 -22.860000 0.000000
vn 2.540000 0.000000 0.000000
vn 2.540000 0.000000 0.000000
vn 2.540000 0.000000 0.000000
vn 2.540000 0.000000 0.000000
vn 0.000000 -2.540000 0.000000
vn 0.000000 -2.540000 0.000000
vn 0.000000 -2.540000 0.000000
vn 0.000000 -2.540000 0.000000
vn -2.540000 0.000000 0.000000
vn -2.540000 0.000000 0.000000
vn -2.540000 0.000000 0.000000
vn -2.540000 0.000000 0.000000
vn 0.000000 2.540000 0.000000
vn 0.000000 2.540000 0.000000
vn 0.000000 2.540000 0.000000
vn 0.000000 2.540000 0.000000
vn 0.000000 0.000000 2.540000
vn 0.000000 0.000000 2.540000
vn 0.000000 0.000000 2.540000
vn 0.000000 0.000000 2.540000
vn -0.000000 0.000000 -2.540000
vn -0.000000 0.000000 -2.540000
vn -0.000000 0.000000 -2.540000
vn -0.000000 0.000000 -2.540000
usemtl Steel_-_Satin
f 1/1/1 2/2/2 4/3/3
f 4/3/3 2/2/2 3/4/4
f 5/5/5 1/6/6 6/7/7
f 6/7/7 1/6/6 4/8/8
f 7/9/9 5/10/10 8/11/11
f 8/11/11 5/10/10 6/12/12
f 2/13/13 7/14/14 3/15/15
f 3/15/15 7/14/14 8/16/16
f 3/17/17 8/18/18 4/19/19
f 4/19/19 8/18/18 6/20/20
f 7/21/21 2/22/22 5/23/23
f 5/23/23 2/22/22 1/24/24
# 8 vertices
# 24 texture params
# 24 normals
# 12 facets

# 1 groups
